<svg width="1728" height="1117" viewBox="0 0 1728 1117" fill="none" xmlns="http://www.w3.org/2000/svg">
<path fill-rule="evenodd" clip-rule="evenodd" d="M2979.55 459.18C2908.55 434.174 2712.92 435.4 2428.73 462.565C2111.23 492.919 1702.98 554.036 1243.43 639.922C1898.75 347.267 2047.11 92.4734 1648.54 -62.5168C1266.83 -210.957 488.932 -210.996 107.16 -62.5561C-291.569 92.4813 -755.01 187.774 -99 480.633C-594.517 389.972 -278.851 526.548 -368.562 571.675C-463.576 619.472 -290.149 719.699 -178.297 775.176C132.89 929.562 722.79 1114.76 976.739 1065.66C1074.28 1046.8 1110.59 997.338 1085.34 918.339C1348.42 1134.08 1539.81 1212.14 1628.04 1212.13H1629.1C1653 1211.96 1671.55 1206.68 1681.37 1197.27C1734.82 1146.11 1541.03 964.479 1040.98 753.006C2211.47 715.395 2931.36 580.651 3002.4 496.532C3014.7 481.963 3006.58 468.699 2979.55 459.18Z" fill="#7383FF"/>
</svg>
