<svg width="75" height="92" viewBox="0 0 75 92" fill="none" xmlns="http://www.w3.org/2000/svg">
<path d="M0 37.1457C0 57.667 16.6328 74.2914 37.1457 74.2914C57.667 74.2914 74.2914 57.6587 74.2914 37.1457C74.2998 16.6328 57.667 0 37.1457 0C16.6328 0 0 16.6328 0 37.1457H3.34496C3.34496 27.8049 7.12475 19.3673 13.246 13.246C19.3673 7.12475 27.8133 3.34495 37.1457 3.34495C46.4865 3.34495 54.9242 7.12475 61.0454 13.246C67.1667 19.3673 70.9465 27.8133 70.9465 37.1457C70.9465 46.4865 67.1667 54.9242 61.0454 61.0454C54.9242 67.1667 46.4781 70.9465 37.1457 70.9465C27.8049 70.9465 19.3673 67.1667 13.246 61.0454C7.12475 54.9242 3.34496 46.4781 3.34496 37.1457H0Z" fill="#2D87DC"/>
<path d="M31.267 85.7312C31.267 88.9841 33.9011 91.6183 37.1541 91.6183C40.407 91.6183 43.0412 88.9841 43.0412 85.7312C43.0412 82.4782 40.407 79.8441 37.1541 79.8441C33.9011 79.8441 31.267 82.4782 31.267 85.7312H34.6119C34.6119 85.0204 34.8962 84.4016 35.3562 83.9333C35.8245 83.4733 36.4433 83.189 37.1541 83.189C37.8649 83.189 38.4837 83.4733 38.952 83.9333C39.4119 84.4016 39.6963 85.0204 39.6963 85.7312C39.6963 86.442 39.4119 87.0608 38.952 87.5291C38.4837 87.989 37.8649 88.2734 37.1541 88.2734C36.4433 88.2734 35.8245 87.989 35.3562 87.5291C34.8962 87.0608 34.6119 86.442 34.6119 85.7312H31.267Z" fill="#2D87DC"/>
<path d="M58.2607 28.8001H56.5883V53.7534C56.5883 54.4977 56.2956 55.1499 55.8022 55.6433C55.3172 56.1283 54.6566 56.421 53.9123 56.4294H21.6251C20.8809 56.4294 20.2286 56.1367 19.7352 55.6433C19.2502 55.1583 18.9575 54.4977 18.9492 53.7534V28.6997C18.9492 27.9555 19.2586 27.253 19.8021 26.7429L35.2642 12.3262C35.7826 11.8495 36.4266 11.607 37.0872 11.607C37.7144 11.607 38.3248 11.8244 38.8349 12.2593L55.6684 26.7764C56.2538 27.2865 56.5966 28.0224 56.5966 28.8001H59.9416C59.9416 27.0523 59.1806 25.3882 57.8594 24.2426L41.0259 9.72546C39.8969 8.75542 38.4921 8.26204 37.0956 8.26204C35.6238 8.26204 34.1436 8.80559 32.9896 9.87598L17.5276 24.2927C16.3067 25.43 15.6126 27.0272 15.6126 28.6913V53.7451C15.6126 57.0649 18.3053 59.7576 21.6251 59.7576H53.9207C57.2405 59.7576 59.9332 57.0649 59.9332 53.7451V28.7917H58.2607V28.8001Z" fill="#2D87DC"/>
<path d="M47.9332 30.5227H49.1876V29.9875L48.8029 29.6196C47.3144 28.1812 45.391 27.4621 43.476 27.4621C41.4691 27.4621 39.4621 28.2481 37.9569 29.8035L37.7645 29.9959L37.5722 29.8035C36.067 28.2481 34.06 27.4621 32.053 27.4621C30.138 27.4621 28.2063 28.1812 26.7262 29.6196L26.3415 29.9875V30.5227H27.5959L26.7262 29.6196C25.1708 31.1248 24.3847 33.1318 24.3847 35.1387C24.3847 37.0537 25.1039 38.9854 26.5422 40.4656L35.699 49.8231C36.2593 50.4001 37.0203 50.6928 37.7645 50.6928C38.5088 50.6928 39.2698 50.4001 39.83 49.8231L48.9869 40.4656C50.4252 38.9771 51.1443 37.0454 51.1443 35.1304C51.1443 33.1234 50.3583 31.1164 48.8029 29.6112L47.9332 30.5143L47.0635 31.4175C48.1172 32.4377 48.6356 33.7757 48.644 35.1304C48.644 36.4266 48.1673 37.7144 47.1973 38.7178L38.0405 48.067C37.9652 48.1423 37.8732 48.1757 37.7729 48.1841C37.6725 48.1841 37.5806 48.1506 37.5053 48.067L28.3485 38.7178C27.3785 37.7144 26.9018 36.4349 26.9018 35.1387C26.9018 33.784 27.4286 32.4377 28.4823 31.4258L28.867 31.0579V30.5227H27.6126L28.4823 31.4258C29.4858 30.4558 30.7736 29.9792 32.0698 29.9792C33.4245 29.9792 34.7708 30.506 35.7827 31.5596L37.7645 33.6084L39.7548 31.5596C40.775 30.5144 42.113 29.9875 43.4677 29.9875C44.7639 29.9875 46.0517 30.4642 47.0551 31.4342L47.9248 30.5311H46.6705V31.0663L47.0551 31.4342L47.9248 30.5311L47.9332 30.5227Z" fill="#1E305D"/>
<path d="M0 37.1457C0 57.667 16.6328 74.2914 37.1457 74.2914C57.667 74.2914 74.2914 57.6587 74.2914 37.1457C74.2998 16.6328 57.667 0 37.1457 0C16.6328 0 0 16.6328 0 37.1457H3.34496C3.34496 27.8049 7.12475 19.3673 13.246 13.246C19.3673 7.12475 27.8133 3.34495 37.1457 3.34495C46.4865 3.34495 54.9242 7.12475 61.0454 13.246C67.1667 19.3673 70.9465 27.8133 70.9465 37.1457C70.9465 46.4865 67.1667 54.9242 61.0454 61.0454C54.9242 67.1667 46.4781 70.9465 37.1457 70.9465C27.8049 70.9465 19.3673 67.1667 13.246 61.0454C7.12475 54.9242 3.34496 46.4781 3.34496 37.1457H0Z" fill="#2D87DC"/>
<path d="M31.267 85.7312C31.267 88.9841 33.9011 91.6183 37.1541 91.6183C40.407 91.6183 43.0412 88.9841 43.0412 85.7312C43.0412 82.4782 40.407 79.8441 37.1541 79.8441C33.9011 79.8441 31.267 82.4782 31.267 85.7312H34.6119C34.6119 85.0204 34.8962 84.4016 35.3562 83.9333C35.8245 83.4733 36.4433 83.189 37.1541 83.189C37.8649 83.189 38.4837 83.4733 38.952 83.9333C39.4119 84.4016 39.6963 85.0204 39.6963 85.7312C39.6963 86.442 39.4119 87.0608 38.952 87.5291C38.4837 87.989 37.8649 88.2734 37.1541 88.2734C36.4433 88.2734 35.8245 87.989 35.3562 87.5291C34.8962 87.0608 34.6119 86.442 34.6119 85.7312H31.267Z" fill="#2D87DC"/>
<path d="M58.2607 28.8001H56.5883V53.7534C56.5883 54.4977 56.2956 55.1499 55.8022 55.6433C55.3172 56.1283 54.6566 56.421 53.9123 56.4294H21.6251C20.8809 56.4294 20.2286 56.1367 19.7352 55.6433C19.2502 55.1583 18.9575 54.4977 18.9492 53.7534V28.6997C18.9492 27.9555 19.2586 27.253 19.8021 26.7429L35.2642 12.3262C35.7826 11.8495 36.4266 11.607 37.0872 11.607C37.7144 11.607 38.3248 11.8244 38.8349 12.2593L55.6684 26.7764C56.2538 27.2865 56.5966 28.0224 56.5966 28.8001H59.9416C59.9416 27.0523 59.1806 25.3882 57.8594 24.2426L41.0259 9.72546C39.8969 8.75542 38.4921 8.26204 37.0956 8.26204C35.6238 8.26204 34.1436 8.80559 32.9896 9.87598L17.5276 24.2927C16.3067 25.43 15.6126 27.0272 15.6126 28.6913V53.7451C15.6126 57.0649 18.3053 59.7576 21.6251 59.7576H53.9207C57.2405 59.7576 59.9332 57.0649 59.9332 53.7451V28.7917H58.2607V28.8001Z" fill="#2D87DC"/>
<path d="M47.9332 30.5227H49.1876V29.9875L48.8029 29.6196C47.3144 28.1812 45.391 27.4621 43.476 27.4621C41.4691 27.4621 39.4621 28.2481 37.9569 29.8035L37.7645 29.9959L37.5722 29.8035C36.067 28.2481 34.06 27.4621 32.053 27.4621C30.138 27.4621 28.2063 28.1812 26.7262 29.6196L26.3415 29.9875V30.5227H27.5959L26.7262 29.6196C25.1708 31.1248 24.3847 33.1318 24.3847 35.1387C24.3847 37.0537 25.1039 38.9854 26.5422 40.4656L35.699 49.8231C36.2593 50.4001 37.0203 50.6928 37.7645 50.6928C38.5088 50.6928 39.2698 50.4001 39.83 49.8231L48.9869 40.4656C50.4252 38.9771 51.1443 37.0454 51.1443 35.1304C51.1443 33.1234 50.3583 31.1164 48.8029 29.6112L47.9332 30.5143L47.0635 31.4175C48.1172 32.4377 48.6356 33.7757 48.644 35.1304C48.644 36.4266 48.1673 37.7144 47.1973 38.7178L38.0405 48.067C37.9652 48.1423 37.8732 48.1757 37.7729 48.1841C37.6725 48.1841 37.5806 48.1506 37.5053 48.067L28.3485 38.7178C27.3785 37.7144 26.9018 36.4349 26.9018 35.1387C26.9018 33.784 27.4286 32.4377 28.4823 31.4258L28.867 31.0579V30.5227H27.6126L28.4823 31.4258C29.4858 30.4558 30.7736 29.9792 32.0698 29.9792C33.4245 29.9792 34.7708 30.506 35.7827 31.5596L37.7645 33.6084L39.7548 31.5596C40.775 30.5144 42.113 29.9875 43.4677 29.9875C44.7639 29.9875 46.0517 30.4642 47.0551 31.4342L47.9248 30.5311H46.6705V31.0663L47.0551 31.4342L47.9248 30.5311L47.9332 30.5227Z" fill="#1E305D"/>
</svg>
